<svg xmlns="http://www.w3.org/2000/svg" viewBox="0 0 64 64">
  <defs>
    <linearGradient id="bone-gold" x1="0" y1="0" x2="1" y2="1">
      <stop offset="0%" stop-color="#F0D48A"/>
      <stop offset="50%" stop-color="#C9A35C"/>
      <stop offset="100%" stop-color="#8A6A32"/>
    </linearGradient>
  </defs>

  <circle cx="32" cy="32" r="31" fill="#0F0D0B"/>
  <circle cx="32" cy="32" r="30" fill="none" stroke="#3A2F1C" stroke-width="1"/>

  <g transform="rotate(-30 32 32)" fill="url(#bone-gold)">
    <!-- metà sinistra dell'osso -->
    <g>
      <circle cx="13" cy="32" r="9"/>
      <path d="M13 28 L26 28 L29 30.3 L26 32 L29 33.7 L26 36 L13 36 Z"/>
    </g>

    <!-- metà destra dell'osso, leggermente sfalsata per la rottura -->
    <g transform="translate(0 2) rotate(3 51 34)">
      <circle cx="51" cy="34" r="9"/>
      <path d="M51 30 L38 30 L35 32.3 L38 34 L35 35.7 L38 38 L51 38 Z"/>
    </g>

    <!-- sbrilluccichio d'oro sulla frattura -->
    <g fill="#FBE7AE">
      <path d="M32 22 L33.1 24.9 L36 26 L33.1 27.1 L32 30 L30.9 27.1 L28 26 L30.9 24.9 Z"/>
      <path d="M33 40 L33.7 41.9 L35.6 42.6 L33.7 43.3 L33 45.2 L32.3 43.3 L30.4 42.6 L32.3 41.9 Z"/>
      <path d="M24 34 L24.6 35.4 L26 36 L24.6 36.6 L24 38 L23.4 36.6 L22 36 L23.4 35.4 Z"/>
    </g>
  </g>
</svg>
